#!OML:ASF H:\Pregnant\Project 1\Capture day 1\Session 1\femalepreg.ASF
:FULLY-SPECIFIED
:DEGREES
725
root 6.17159 15.7833 -14.6723 -153.739 195.076 -179.473
lowerback -16.796 6.00619 -8.83222
upperback -3.76595 9.99879 -9.0885
thorax 5.46265 4.82606 -2.69412
lowerneck -18.9183 -0.931792 2.08492
upperneck 27.2949 -4.72402 8.90742
head 12.433 -0.68663 2.27214
rclavicle 4.01545e-014 -1.59028e-015
rhumerus -9.78966 24.6858 -89.6504
rradius 41.3034
rwrist -4.73036
rhand -19.2668 -18.1374
rfingers 7.12502
rthumb 7.04762 -48.0001
lclavicle 4.01545e-014 -1.59028e-015
lhumerus -38.6715 0.112677 68.0617
lradius 22.0567
lwrist 39.3838
lhand -39.1013 0.571514
lfingers 7.12502
lthumb -12.1014 30.2016
rfemur -55.7459 9.16061 20.8786
rtibia 61.5019
rfoot -15.3077 -3.54276
rtoes -13.5741
lfemur -35.3036 -7.08924 -26.1008
ltibia 28.0047
lfoot -15.942 -0.268571
ltoes 1.98921
726
root 6.17364 15.7828 -14.5988 -153.651 195.518 -179.634
lowerback -16.7088 6.03372 -8.72495
upperback -3.75686 10.0027 -9.06172
thorax 5.43838 4.83041 -2.72999
lowerneck -18.826 -0.821436 2.03067
upperneck 26.9631 -4.46145 8.74724
head 12.2622 -0.613412 2.25191
rclavicle 3.29983e-014 3.33958e-014
rhumerus -9.37808 24.4759 -89.8017
rradius 41.411
rwrist -4.70245
rhand -19.2308 -18.1906
rfingers 7.12502
rthumb 7.08235 -48.0521
lclavicle 3.29983e-014 3.33958e-014
lhumerus -39.3863 0.603672 67.7477
lradius 22.3442
lwrist 40.667
lhand -38.9576 0.816098
lfingers 7.12502
lthumb -11.9628 30.4543
rfemur -56.3258 9.38575 21.0377
rtibia 60.4793
rfoot -15.4406 -4.1843
rtoes -13.7563
lfemur -34.9613 -6.98388 -26.1115
ltibia 27.9226
lfoot -16.1717 0.139837
ltoes 1.70713
727
root 6.17463 15.7834 -14.5243 -153.558 195.928 -179.79
lowerback -16.6505 6.03416 -8.64995
upperback -3.72407 9.98047 -8.98762
thorax 5.4409 4.81918 -2.69943
lowerneck -18.7992 -0.700744 1.96249
upperneck 26.6622 -4.17302 8.53552
head 12.1159 -0.533022 2.21982
rclavicle 7.63333e-014 -2.54444e-014
rhumerus -9.00258 24.3573 -89.9095
rradius 41.6003
rwrist -4.72877
rhand -19.1708 -18.2317
rfingers 7.12502
rthumb 7.14032 -48.0913
lclavicle 7.63333e-014 -2.54444e-014
lhumerus -40.063 1.03158 67.5628
lradius 22.5915
lwrist 41.8242
lhand -38.6193 1.21843
lfingers 7.12502
lthumb -11.6365 30.8753
rfemur -56.8789 9.62537 21.185
rtibia 59.3863
rfoot -15.5254 -4.86583
rtoes -13.8981
lfemur -34.5862 -6.88069 -26.123
ltibia 27.7743
lfoot -16.3744 0.514961
ltoes 1.38637
728
root 6.17456 15.7852 -14.4487 -153.467 196.307 -179.941
lowerback -16.6027 6.01876 -8.59367
upperback -3.68119 9.94148 -8.88532
thorax 5.45153 4.79855 -2.63076
lowerneck -18.88 -0.559762 1.94578
upperneck 26.4421 -3.86011 8.23123
head 12.0202 -0.441902 2.15075
rclavicle -3.69739e-014 -1.59028e-014
rhumerus -8.68843 24.2972 -90.0032
rradius 41.862
rwrist -4.78133
rhand -19.1006 -18.2464
rfingers 7.12502
rthumb 7.20802 -48.1037
lclavicle -3.69739e-014 -1.59028e-014
lhumerus -40.7115 1.34525 67.4998
lradius 22.8122
lwrist 42.8817
lhand -38.1003 1.68895
lfingers 7.12502
lthumb -11.1361 31.3735
rfemur -57.4008 9.8798 21.3134
rtibia 58.2306
rfoot -15.5538 -5.55332
rtoes -13.9443
lfemur -34.1712 -6.78655 -26.136
ltibia 27.5578
lfoot -16.5518 0.866503
ltoes 1.01628
729
root 6.17354 15.7877 -14.3721 -153.376 196.655 -180.08
lowerback -16.5566 5.98895 -8.54934
upperback -3.63316 9.88536 -8.76625
thorax 5.4635 4.76901 -2.54103
lowerneck -19.0712 -0.39608 1.99384
upperneck 26.3072 -3.52424 7.83739
head 11.978 -0.339515 2.04377
rclavicle -4.73108e-014 -7.95139e-015
rhumerus -8.44069 24.2856 -90.0965
rradius 42.1961
rwrist -4.86267
rhand -18.9991 -18.2364
rfingers 7.12502
rthumb 7.30601 -48.0902
lclavicle -4.73108e-014 -7.95139e-015
lhumerus -41.3246 1.53755 67.5491
lradius 23.0133
lwrist 43.8538
lhand -37.4326 2.16092
lfingers 7.12502
lthumb -10.492 31.8791
rfemur -57.8983 10.1442 21.4168
rtibia 57.0213
rfoot -15.5219 -6.2295
rtoes -13.9049
lfemur -33.7196 -6.70688 -26.1529
ltibia 27.2736
lfoot -16.7006 1.19506
ltoes 0.602451
730
root 6.17157 15.791 -14.2946 -153.287 196.974 -180.207
lowerback -16.5109 5.95046 -8.51353
upperback -3.58439 9.81897 -8.63941
thorax 5.47386 4.73431 -2.44055
lowerneck -19.2464 -0.235301 2.0456
upperneck 26.1684 -3.18907 7.42842
head 11.9326 -0.239543 1.93078
rclavicle -7.07673e-014 5.725e-014
rhumerus -8.26736 24.304 -90.1978
rradius 42.5991
rwrist -4.97486
rhand -18.837 -18.2177
rfingers 7.12502
rthumb 7.46247 -48.0661
lclavicle -7.07673e-014 5.725e-014
lhumerus -41.8994 1.59805 67.7038
lradius 23.194
lwrist 44.7364
lhand -36.6271 2.5701
lfingers 7.12502
lthumb -9.71485 32.326
rfemur -58.375 10.4189 21.488
rtibia 55.7672
rfoot -15.4279 -6.86911
rtoes -13.7768
lfemur -33.2324 -6.63819 -26.1777
ltibia 26.9226
lfoot -16.8181 1.49469
ltoes 0.159151
731
root 6.1687 15.7948 -14.2162 -153.199 197.263 -180.318
lowerback -16.4499 5.91115 -8.46577
upperback -3.54603 9.74745 -8.5293
thorax 5.46997 4.69842 -2.36737
lowerneck -19.3433 -0.0954013 2.0748
upperneck 25.9757 -2.88264 7.06524
head 11.855 -0.151969 1.83318
rclavicle -3.02153e-014 6.36111e-014
rhumerus -8.17721 24.3186 -90.34
rradius 43.0664
rwrist -5.1058
rhand -18.6774 -18.1842
rfingers 7.12502
rthumb 7.61651 -48.027
lclavicle -3.02153e-014 6.36111e-014
lhumerus -42.4293 1.48926 67.942
lradius 23.3565
lwrist 45.5431
lhand -35.7306 2.90771
lfingers 7.12502
lthumb -8.84989 32.7021
rfemur -58.8367 10.7021 21.5208
rtibia 54.4777
rfoot -15.2812 -7.45331
rtoes -13.5453
lfemur -32.713 -6.59023 -26.2085
ltibia 26.506
lfoot -16.898 1.76666
ltoes -0.238542
732
root 6.16497 15.799 -14.1372 -153.107 197.524 -180.411
lowerback -16.3962 5.86213 -8.42638
upperback -3.50889 9.66535 -8.41668
thorax 5.46709 4.65716 -2.28849
lowerneck -19.4046 0.0394982 2.10507
upperneck 25.7652 -2.57891 6.69126
head 11.7651 -0.0677268 1.73087
rclavicle -2.98177e-014 1.43125e-014
rhumerus -8.16126 24.3467 -90.4915
rradius 43.601
rwrist -5.28852
rhand -18.6209 -18.0629
rfingers 7.12502
rthumb 7.67103 -47.9038
lclavicle -2.98177e-014 1.43125e-014
lhumerus -42.9095 1.26618 68.2758
lradius 23.4892
lwrist 46.24
lhand -34.7963 3.19009
lfingers 7.12502
lthumb -7.94818 33.0207
rfemur -59.2944 10.9909 21.5077
rtibia 53.1648
rfoot -15.0851 -7.9777
rtoes -13.256
lfemur -32.1647 -6.55824 -26.251
ltibia 26.0174
lfoot -16.9295 2.00751
ltoes -0.610589
733
root 6.16029 15.8037 -14.0573 -153.014 197.757 -180.485
lowerback -16.3517 5.80543 -8.38698
upperback -3.46741 9.57537 -8.30723
thorax 5.4748 4.61163 -2.21326
lowerneck -19.5127 0.188069 2.19078
upperneck 25.5909 -2.26327 6.25801
head 11.6989 0.0220395 1.60063
rclavicle 7.79236e-014 -1.59028e-015
rhumerus -8.2049 24.3875 -90.6542
rradius 44.1924
rwrist -5.50591
rhand -18.6692 -17.8655
rfingers 7.12502
rthumb 7.62448 -47.7081
lclavicle 7.79236e-014 -1.59028e-015
lhumerus -43.3236 0.929831 68.6989
lradius 23.5916
lwrist 46.8141
lhand -33.8701 3.40336
lfingers 7.12502
lthumb -7.05421 33.2658
rfemur -59.7476 11.2866 21.4464
rtibia 51.8348
rfoot -14.8373 -8.43966
rtoes -12.9706
lfemur -31.5856 -6.5368 -26.3055
ltibia 25.4588
lfoot -16.9131 2.20941
ltoes -0.928615
734
root 6.1547 15.8076 -13.9769 -152.922 197.965 -180.542
lowerback -16.3359 5.73883 -8.36036
upperback -3.4117 9.4794 -8.18489
thorax 5.5094 4.56143 -2.11502
lowerneck -19.6015 0.336384 2.27959
upperneck 25.3978 -1.93974 5.79459
head 11.6232 0.111148 1.46005
rclavicle 2.26615e-014 3.18055e-015
rhumerus -8.29762 24.4556 -90.8007
rradius 44.8282
rwrist -5.74996
rhand -18.8846 -17.5689
rfingers 7.12502
rthumb 7.41655 -47.4189
lclavicle 2.26615e-014 3.18055e-015
lhumerus -43.6711 0.509478 69.2257
lradius 23.6596
lwrist 47.2379
lhand -32.9829 3.53966
lfingers 7.12502
lthumb -6.19772 33.429
rfemur -60.2038 11.5878 21.3375
rtibia 50.5018
rfoot -14.5324 -8.83381
rtoes -12.7033
lfemur -30.9543 -6.50625 -26.3814
ltibia 24.8235
lfoot -16.8628 2.40106
ltoes -1.48396
735
root 6.14819 15.812 -13.8957 -152.828 198.157 -180.59
lowerback -16.3291 5.66876 -8.33993
upperback -3.35715 9.38038 -8.05405
thorax 5.54551 4.50948 -2.00431
lowerneck -19.6575 0.483671 2.36864
upperneck 25.1909 -1.6107 5.30872
head 11.5378 0.199367 1.31222
rclavicle -1.04561e-013 1.27222e-014
rhumerus -8.45667 24.5441 -90.9473
rradius 45.4903
rwrist -5.99826
rhand -19.1344 -17.2407
rfingers 7.12502
rthumb 7.17541 -47.0991
lclavicle -1.04561e-013 1.27222e-014
lhumerus -43.9651 -0.00125771 69.8472
lradius 23.6978
lwrist 47.4856
lhand -32.1509 3.628
lfingers 7.12502
lthumb -5.39441 33.5393
rfemur -60.6565 11.9054 21.1794
rtibia 49.1618
rfoot -14.1593 -9.16043
rtoes -12.4284
lfemur -30.2947 -6.48741 -26.4599
ltibia 24.1216
lfoot -16.7673 2.57677
ltoes -2.02542
736
root 6.14094 15.8158 -13.8137 -152.735 198.317 -180.626
lowerback -16.3292 5.59268 -8.3137
upperback -3.30252 9.27314 -7.91802
thorax 5.58597 4.45345 -1.89213
lowerneck -19.6858 0.63015 2.46371
upperneck 24.972 -1.27815 4.79914
head 11.4449 0.286557 1.15556
rclavicle 3.57812e-014 4.92986e-014
rhumerus -8.68161 24.6401 -91.101
rradius 46.1672
rwrist -6.22252
rhand -19.3822 -16.8739
rfingers 7.12502
rthumb 6.93626 -46.7403
lclavicle 3.57812e-014 4.92986e-014
lhumerus -44.2064 -0.609163 70.5587
lradius 23.7069
lwrist 47.5578
lhand -31.3762 3.67019
lfingers 7.12502
lthumb -4.64638 33.5992
rfemur -61.1088 12.2254 20.9749
rtibia 47.8253
rfoot -13.7104 -9.42188
rtoes -12.1905
lfemur -29.5923 -6.45998 -26.5511
ltibia 23.3549
lfoot -16.637 2.72973
ltoes -2.76341
737
root 6.13295 15.8204 -13.7309 -152.642 198.452 -180.657
lowerback -16.3206 5.51928 -8.2721
upperback -3.25332 9.16562 -7.78828
thorax 5.61975 4.39815 -1.796
lowerneck -19.7024 0.770185 2.57278
upperneck 24.7475 -0.957157 4.27663
head 11.3506 0.368629 0.990706
rclavicle -6.63941e-014 1.11319e-014
rhumerus -8.96133 24.711 -91.2738
rradius 46.8402
rwrist -6.4268
rhand -19.5015 -16.5427
rfingers 7.12502
rthumb 6.82104 -46.4128
lclavicle -6.63941e-014 1.11319e-014
lhumerus -44.3921 -1.3319 71.3442
lradius 23.6951
lwrist 47.4523
lhand -30.6436 3.6515
lfingers 7.12502
lthumb -3.93893 33.5948
rfemur -61.5504 12.5574 20.7208
rtibia 46.4866
rfoot -13.1636 -9.64151
rtoes -12.1075
lfemur -28.8755 -6.45619 -26.634
ltibia 22.5407
lfoot -16.4616 2.8505
ltoes -3.3935
738
root 6.12437 15.8248 -13.6473 -152.555 198.549 -180.679
lowerback -16.3319 5.43707 -8.22187
upperback -3.18047 9.04998 -7.6465
thorax 5.68978 4.33718 -1.69011
lowerneck -19.7329 0.907673 2.68077
upperneck 24.5082 -0.634986 3.72947
head 11.2563 0.448484 0.817961
rclavicle -6.79844e-014 -1.59028e-014
rhumerus -9.26197 24.7861 -91.4239
rradius 47.512
rwrist -6.60424
rhand -19.5209 -16.2513
rfingers 7.12502
rthumb 6.8023 -46.122
lclavicle -6.79844e-014 -1.59028e-014
lhumerus -44.4863 -2.10301 72.2037
lradius 23.6493
lwrist 47.153
lhand -29.9515 3.54258
lfingers 7.12502
lthumb -3.27061 33.4972
rfemur -61.9801 12.8931 20.4165
rtibia 45.1544
rfoot -12.5689 -9.84751
rtoes -12.0456
lfemur -28.1345 -6.45476 -26.7187
ltibia 21.6863
lfoot -16.2541 2.92043
ltoes -4.03907
